Coordinates
version=1
nRows=8
nColumns=46
inDegrees=yes

Units are S.I. units (second, meters, Newtons, ...)
Angles are in degrees.

endheader
time	pelvis_tilt	pelvis_list	pelvis_rotation	pelvis_tx	pelvis_ty	pelvis_tz	bb_angle	bb_tx	bb_ty	bb_tz	hip_flexion_r	hip_adduction_r	hip_rotation_r	knee_angle_r	knee_angle_r_beta	ankle_angle_r	subtalar_angle_r	mtp_angle_r	crank_angle_r	hip_flexion_l	hip_adduction_l	hip_rotation_l	knee_angle_l	knee_angle_l_beta	ankle_angle_l	subtalar_angle_l	mtp_angle_l	crank_angle_l	lumbar_extension	lumbar_bending	lumbar_rotation	arm_flex_r	arm_add_r	arm_rot_r	elbow_flex_r	pro_sup_r	wrist_flex_r	wrist_dev_r	arm_flex_l	arm_add_l	arm_rot_l	elbow_flex_l	pro_sup_l	wrist_flex_l	wrist_dev_l
      2.50500000	    -15.30590891	      2.92023594	     -1.56901309	      0.13952614	      1.14743125	     -0.22442355	      0.00000000	      0.50000000	      0.00000000	      0.25000000	     49.37834046	     -9.22254677	     -8.00585136	     40.31763194	      0.70367542	      7.60639299	     11.39777981	      0.00000000	      0.00000000	     82.96383096	    -16.04577191	     -2.06683253	    112.71740151	      1.96728978	      5.18554854	      3.04776936	      0.00000000	      0.00000000	    -57.86206423	     -3.22673368	     -0.36312433	     89.44426842	    -29.42630525	     48.55255070	     61.98569299	     28.97972586	      0.00000000	      0.00000000	     89.62977255	    -28.20588892	     51.31891673	     58.64522566	     31.76528755	      0.00000000	      0.00000000
      2.51000000	    -15.42299816	      3.11842277	     -1.27803548	      0.13986554	      1.14791712	     -0.22256316	      0.00000000	      0.50000000	      0.00000000	      0.25000000	     48.37679564	     -9.54034363	     -8.59123623	     39.35332530	      0.68684510	      6.70362850	     11.78768141	      0.00000000	      0.00000000	     83.93981072	    -15.90494825	     -2.02307873	    113.35383383	      1.97839762	      6.63254510	      2.92701910	      0.00000000	      0.00000000	    -57.77833259	     -3.73223276	     -0.82777057	     89.38807834	    -29.51501299	     48.64051691	     61.83161064	     28.98316176	      0.00000000	      0.00000000	     89.64264407	    -27.99293010	     51.15624725	     58.76712385	     31.75735959	      0.00000000	      0.00000000
      2.51500000	    -15.15510771	      3.01213947	     -0.82691466	      0.14033578	      1.14909671	     -0.22108478	      0.00000000	      0.50000000	      0.00000000	      0.25000000	     46.87582540	     -9.82347794	     -9.66093188	     38.43799848	      0.67086963	      5.86976680	     12.41901270	      0.00000000	      0.00000000	     84.59478683	    -15.61945857	     -1.54119694	    113.92078148	      1.98829272	      8.23379973	      3.76493643	      0.00000000	      0.00000000	    -58.10797480	     -3.83058441	     -1.06587994	     89.41148460	    -29.58001150	     49.05710564	     61.34977928	     29.02047812	      0.00000000	      0.00000000	     89.64661412	    -27.62217601	     50.48084644	     58.91713780	     31.66534743	      0.00000000	      0.00000000
      2.52000000	    -15.23830337	      3.16516319	     -0.51965318	      0.14057832	      1.14980745	     -0.21927327	      0.00000000	      0.50000000	      0.00000000	      0.25000000	     45.95817378	    -10.08661806	    -10.16990399	     37.72183236	      0.65837017	      5.04348803	     12.68593647	      0.00000000	      0.00000000	     85.49754662	    -15.42082457	     -1.48006143	    114.28834120	      1.99470785	      9.44075426	      3.77601870	      0.00000000	      0.00000000	    -58.08285443	     -4.27821738	     -1.45501656	     89.36311342	    -29.66449319	     49.10641757	     61.19000541	     29.02570344	      0.00000000	      0.00000000	     89.66103152	    -27.35047629	     50.26831001	     59.00860893	     31.64111753	      0.00000000	      0.00000000
      2.52500000	    -15.17177746	      3.19090466	     -0.18948464	      0.14085393	      1.15099426	     -0.21737757	      0.00000000	      0.50000000	      0.00000000	      0.25000000	     44.87844536	    -10.28390183	    -10.86131122	     37.07875268	      0.64714632	      4.22768613	     12.96339465	      0.00000000	      0.00000000	     86.23305501	    -15.21259386	     -1.27842100	    114.49570088	      1.99832696	     10.56826215	      4.03992754	      0.00000000	      0.00000000	    -58.24479868	     -4.61770678	     -1.74131505	     89.33897649	    -29.75045401	     49.23324337	     60.89540913	     29.01977518	      0.00000000	      0.00000000	     89.67093779	    -27.01639146	     49.85434053	     59.13073729	     31.59833967	      0.00000000	      0.00000000
      2.53000000	    -14.81807319	      3.07836344	      0.26762589	      0.14117666	      1.15265255	     -0.21581606	      0.00000000	      0.50000000	      0.00000000	      0.25000000	     43.49107775	    -10.47356853	    -11.72071413	     36.59550146	      0.63871199	      3.67318126	     13.21522815	      0.00000000	      0.00000000	     86.69453461	    -14.89001278	     -0.88059285	    114.59244882	      2.00001553	     11.67132083	      4.93883168	      0.00000000	      0.00000000	    -58.68949591	     -4.79792037	     -1.95103052	     89.36196900	    -29.88428582	     49.41636769	     60.24492373	     29.03144281	      0.00000000	      0.00000000	     89.67527562	    -26.26385575	     48.78675879	     59.12253848	     31.40937535	      0.00000000	      0.00000000
      2.53500000	    -14.88197817	      3.17346901	      0.57350450	      0.14124324	      1.15371325	     -0.21419704	      0.00000000	      0.50000000	      0.00000000	      0.25000000	     42.78183253	    -10.67372003	    -12.04376940	     36.35613526	      0.63453426	      3.04367703	     13.26029654	      0.00000000	      0.00000000	     87.46842705	    -14.62966337	     -0.84349320	    114.52586087	      1.99885335	     12.51390654	      5.12908197	      0.00000000	      0.00000000	    -58.75720935	     -5.15756519	     -2.26792124	     89.33255200	    -29.99253669	     49.36726656	     60.05316918	     29.03463822	      0.00000000	      0.00000000	     89.68792571	    -25.92368405	     48.43748741	     59.16080354	     31.34909555	      0.00000000	      0.00000000
      2.54000000	    -14.62162969	      3.15106122	      0.97334188	      0.14149915	      1.15553814	     -0.21267942	      0.00000000	      0.50000000	      0.00000000	      0.25000000	     41.69080226	    -10.84738970	    -12.60836023	     36.19709208	      0.63175844	      2.65644978	     13.26773006	      0.00000000	      0.00000000	     87.84763620	    -14.30300164	     -0.64284832	    114.32332090	      1.99531836	     13.39056936	      5.80182805	      0.00000000	      0.00000000	    -59.16932135	     -5.40091101	     -2.44944713	     89.34043302	    -30.14724999	     49.27843618	     59.52322293	     29.10929707	      0.00000000	      0.00000000	     89.68876771	    -24.96920073	     47.17093863	     58.96054985	     31.03504289	      0.00000000	      0.00000000
